<?xml version="1.0" encoding="utf-8"?>
<!-- Generator: Adobe Illustrator 21.1.0, SVG Export Plug-In . SVG Version: 6.00 Build 0)  -->
<svg version="1.1" id="Layer_1" xmlns="http://www.w3.org/2000/svg" xmlns:xlink="http://www.w3.org/1999/xlink" x="0px" y="0px"
	 viewBox="0 0 307 47" style="enable-background:new 0 0 307 47;" xml:space="preserve">
<style type="text/css">
	.st0{fill:#99866A;}
	.st1{fill:#35614A;}
</style>
<g>
	<g>
		<path class="st0" d="M172.3,40.3c-2.4,2.1-5.2,3.1-8.1,3.1c-3.1,0-5.5-0.9-7.3-2.7c-1.7-1.8-2.6-4.2-2.6-7.3
			c0-3.8,1.5-7.1,4.4-9.6l0.3-0.3l13.6,16.5L172.3,40.3z M157,9.8c-0.3-2.5,0.8-4.8,2.7-5.9c1.9-1.1,4.5-0.9,6.1,0.5
			c1.6,1.3,2.3,3.1,2.3,5.6c-0.1,3.7-1.8,6.7-5.4,9.5l-0.3,0.2l-0.2-0.3C159.3,16.4,157.4,13.6,157,9.8 M186.3,44.3
			c-1.5,0-2.9-0.5-4-1.5c-1.1-0.9-2.3-2.4-3.7-4.4l-0.1-0.2l0.1-0.2c2-3.1,3-6.9,3-11.2c0-0.9-0.1-1.9-0.2-3c-0.1-0.6,0.2-1,0.8-1.1
			l3.5-0.9l0-0.7c-0.7,0-1.4,0.1-2.2,0.1c-1.9,0-4.2,0-6.4,0c-1,0-2,0-3-0.1l0,0.7l3.4,0.7c0.5,0.1,0.8,0.3,1,0.5
			c0.3,0.2,0.4,0.6,0.5,1.1c0.1,0.8,0.2,1.9,0.2,3.2c0,3.2-0.7,6.1-2,8.7l-0.3,0.5l-13.5-15.7l0.4-0.2c6-3,8.8-6.4,8.8-10.7
			c0-2.9-0.8-4.9-2.5-6.3c-1.9-1.5-4.2-2.2-7-2.2c-3.1,0-5.8,0.9-7.9,2.7c-2.1,1.7-3.1,4.1-3.1,7c0,1.6,0.3,3.2,0.9,4.7
			c0.6,1.5,2,3.7,4.1,6.3l0.3,0.4l-0.4,0.2c-5.7,3.1-8.5,7.2-8.5,11.9c0,3.5,1.4,6.3,4.1,8.3c2.7,2.1,6.2,3.1,10.2,3.1
			c4.3,0,8.3-1.4,11.8-4.1l0.3-0.2l0.2,0.3c2.1,2.7,4.8,4.1,7.8,4.1c1.5,0,2.9-0.3,4.3-0.9l-0.2-1C186.8,44.3,186.6,44.3,186.3,44.3
			"/>
	</g>
	<g>
		<path class="st1" d="M198.1,21.7c0.3,5.8,0.4,7.5,0.4,12.5v11h-7.3v-43h7.3c0,0,3.5,12.6,4.2,15.3c0.8,2.7,1.3,5,1.7,6.8
			c-0.2-4.2-0.3-9.4-0.3-13.7V2.1h7.1v43h-6.5c0,0-4-13.3-4.8-15.9C199.2,27.2,198.7,24.9,198.1,21.7"/>
		<path class="st1" d="M237.1,23.7c0,18.5-3.1,22.4-10.4,22.4c-6.8,0-10.4-2.9-10.4-22.4c0-18.9,2.8-22.2,10.4-22.2
			C234.3,1.5,237.1,4.8,237.1,23.7 M228.9,23.7c0-6.8,0-10.9-0.3-14c-0.2-3.1-0.8-3.8-1.9-3.8c-1.3,0-1.8,0.6-2.1,3.8
			c-0.2,3-0.2,7.3-0.2,14c0,7.8-0.1,10.9,0.2,13.9c0.3,3.3,0.8,3.6,2.1,3.6c1.2,0,1.6-0.3,1.9-3.6C228.8,34.5,228.9,31.5,228.9,23.7
			"/>
		<path class="st1" d="M263.2,33c0,8.9-4.1,12.2-11,12.2h-9.9v-43h10c7.7,0,9.7,4.5,9.7,11.8c0,5.3-2,8.1-5.5,8.3
			C260.3,22.2,263.2,26,263.2,33 M249.9,24.9v15.2h2c2.4,0,3-1.4,3-8c0-4.8-0.6-7.2-3.1-7.2H249.9z M249.9,7.2v12.4h2
			c2.1,0,2.5-1.8,2.5-5.5c0-5-0.5-6.9-3.1-6.9H249.9z"/>
		<polygon class="st1" points="267.7,2.1 267.7,45.2 285.2,45.2 285.2,38.7 275.8,38.7 275.8,2.1 		"/>
		<polygon class="st1" points="289.5,2.1 289.5,45.2 307,45.2 307,38.7 297.3,38.7 297.3,26.2 304.8,26.2 304.8,20.2 297.3,20.2 
			297.3,8.6 305.8,8.6 305.8,2.1 		"/>
		<path class="st1" d="M21,33c0,8.9-4.1,12.2-11,12.2H0V2.1h10c7.7,0,9.7,4.5,9.7,11.8c0,5.3-2,8.1-5.5,8.3C18.1,22.2,21,26,21,33
			 M7.7,24.9v15.2h2c2.4,0,3-1.4,3-8c0-4.8-0.6-7.2-3.1-7.2H7.7z M7.7,7.1v12.4h2c2.1,0,2.5-1.8,2.5-5.5c0-5-0.5-6.9-3.1-6.9H7.7z"
			/>
		<path class="st1" d="M64.8,23.1c5,1.5,5.6,7.1,5.6,12.4c0,4,0.1,7.6,0.7,9.7h-8.1c-0.2-1.6-0.6-2.5-0.6-6.4v-5.5
			c0-3.4-1.2-6-3.7-6.6h-0.6v18.6h-8V2.1h11.9c5.6,0,9.3,3.1,9.3,10.9C71.3,19.8,68.2,22.7,64.8,23.1 M58.1,7.4V20h2.4
			c2.1,0,2.7-1.3,2.7-5.3c0-6.3-1.2-7.3-3.6-7.3H58.1z"/>
		<path class="st1" d="M83.4,21.7c0.3,5.8,0.4,7.5,0.4,12.5v11h-7.3V2.1h7.3c0,0,3.5,12.6,4.2,15.3c0.8,2.7,1.3,5,1.7,6.8
			c-0.2-4.2-0.3-9.4-0.3-13.7V2.1h7.1v43.1h-6.5c0,0-4-13.3-4.8-15.9C84.5,27.2,83.9,24.9,83.4,21.7"/>
		<polygon class="st1" points="102.5,2.1 102.5,45.2 120,45.2 120,38.7 110.4,38.7 110.4,26.2 117.8,26.2 117.8,20.2 110.4,20.2 
			110.4,8.5 118.8,8.5 118.8,2.1 		"/>
		<path class="st1" d="M131.7,35.2c0,4.8,1,5.6,2.8,5.6c1.4,0,2.5-0.8,2.5-5.6c0-4.3-2.9-7.3-6.3-11.2c-3-3.5-6.4-8.3-6.4-12.4
			c0-6.4,3-10.2,9.3-10.2c6.2,0,9.4,3.3,9.4,9.6c0,1.5-0.3,2.6-0.6,3.5h-6.6c0.1-0.7,0.2-1.7,0.2-3c0-4.1-0.5-5.3-2.3-5.3
			c-1.7,0-2,1.6-2,4.7c0,3.9,3.2,7,5.8,10.2c3.8,4.7,6.8,8.4,6.8,12.8c0,7-3,12.2-9.9,12.2c-6.1,0-10.1-3.2-10.1-10.7
			c0-1.7,0.1-3.2,0.5-4.7l7.1,0C131.8,32.4,131.7,33.4,131.7,35.2"/>
		<path class="st1" d="M24,45.2l6.5-43.4h7.6l7.6,43.4h-8.3l-0.8-7h-5l-0.8,7H24z M32.2,33.5h4c0,0-0.6-5-1-8.2
			c-0.2-2-1-8.3-1.3-12.5c-0.1,4.3-0.8,10.5-1,12.5C32.7,28.5,32.2,33.5,32.2,33.5"/>
	</g>
</g>
</svg>
